<mxfile host="app.diagrams.net" agent="Mozilla/5.0 (Windows NT 10.0; Win64; x64) AppleWebKit/537.36 (KHTML, like Gecko) Chrome/134.0.0.0 Safari/537.36" version="26.1.0">
  <diagram id="C5RBs43oDa-KdzZeNtuy" name="Page-1">
    <mxGraphModel dx="1707" dy="468" grid="1" gridSize="10" guides="1" tooltips="1" connect="1" arrows="1" fold="1" page="1" pageScale="1" pageWidth="827" pageHeight="1169" math="0" shadow="0">
      <root>
        <mxCell id="WIyWlLk6GJQsqaUBKTNV-0" />
        <mxCell id="WIyWlLk6GJQsqaUBKTNV-1" parent="WIyWlLk6GJQsqaUBKTNV-0" />
        <mxCell id="Lyx_HTyFLz4C8updRh6S-2" value="" style="edgeStyle=orthogonalEdgeStyle;rounded=0;orthogonalLoop=1;jettySize=auto;html=1;" edge="1" parent="WIyWlLk6GJQsqaUBKTNV-1" source="Lyx_HTyFLz4C8updRh6S-0" target="Lyx_HTyFLz4C8updRh6S-1">
          <mxGeometry relative="1" as="geometry" />
        </mxCell>
        <mxCell id="Lyx_HTyFLz4C8updRh6S-0" value="&lt;font style=&quot;vertical-align: inherit;&quot;&gt;&lt;font style=&quot;vertical-align: inherit;&quot;&gt;Siswa Mengajukan Izin&lt;/font&gt;&lt;/font&gt;" style="rounded=0;whiteSpace=wrap;html=1;" vertex="1" parent="WIyWlLk6GJQsqaUBKTNV-1">
          <mxGeometry x="50" y="100" width="140" height="50" as="geometry" />
        </mxCell>
        <mxCell id="Lyx_HTyFLz4C8updRh6S-9" value="" style="edgeStyle=orthogonalEdgeStyle;rounded=0;orthogonalLoop=1;jettySize=auto;html=1;" edge="1" parent="WIyWlLk6GJQsqaUBKTNV-1" source="Lyx_HTyFLz4C8updRh6S-1" target="Lyx_HTyFLz4C8updRh6S-5">
          <mxGeometry relative="1" as="geometry" />
        </mxCell>
        <mxCell id="Lyx_HTyFLz4C8updRh6S-1" value="&lt;font style=&quot;vertical-align: inherit;&quot;&gt;&lt;font style=&quot;vertical-align: inherit;&quot;&gt;Sistem Menerima Permintaan&lt;/font&gt;&lt;/font&gt;" style="rounded=0;whiteSpace=wrap;html=1;" vertex="1" parent="WIyWlLk6GJQsqaUBKTNV-1">
          <mxGeometry x="230" y="100" width="140" height="50" as="geometry" />
        </mxCell>
        <mxCell id="Lyx_HTyFLz4C8updRh6S-10" value="" style="edgeStyle=orthogonalEdgeStyle;rounded=0;orthogonalLoop=1;jettySize=auto;html=1;" edge="1" parent="WIyWlLk6GJQsqaUBKTNV-1" source="Lyx_HTyFLz4C8updRh6S-5" target="Lyx_HTyFLz4C8updRh6S-7">
          <mxGeometry relative="1" as="geometry" />
        </mxCell>
        <mxCell id="Lyx_HTyFLz4C8updRh6S-5" value="&lt;font style=&quot;vertical-align: inherit;&quot;&gt;&lt;font style=&quot;vertical-align: inherit;&quot;&gt;Guru/Admin Memverifikasi&lt;/font&gt;&lt;/font&gt;" style="rounded=0;whiteSpace=wrap;html=1;" vertex="1" parent="WIyWlLk6GJQsqaUBKTNV-1">
          <mxGeometry x="413.5" y="100" width="140" height="50" as="geometry" />
        </mxCell>
        <mxCell id="Lyx_HTyFLz4C8updRh6S-7" value="&lt;font style=&quot;vertical-align: inherit;&quot;&gt;&lt;font style=&quot;vertical-align: inherit;&quot;&gt;&lt;font style=&quot;vertical-align: inherit;&quot;&gt;&lt;font style=&quot;vertical-align: inherit;&quot;&gt;Guru/Admin&lt;/font&gt;&lt;/font&gt;&lt;/font&gt;&lt;/font&gt;" style="rounded=0;whiteSpace=wrap;html=1;" vertex="1" parent="WIyWlLk6GJQsqaUBKTNV-1">
          <mxGeometry x="600" y="100" width="110" height="50" as="geometry" />
        </mxCell>
        <mxCell id="Lyx_HTyFLz4C8updRh6S-11" value="&lt;font style=&quot;vertical-align: inherit;&quot;&gt;&lt;font style=&quot;vertical-align: inherit;&quot;&gt;Tolak Izin&lt;/font&gt;&lt;/font&gt;" style="rounded=0;whiteSpace=wrap;html=1;" vertex="1" parent="WIyWlLk6GJQsqaUBKTNV-1">
          <mxGeometry x="770" y="50" width="120" height="50" as="geometry" />
        </mxCell>
        <mxCell id="Lyx_HTyFLz4C8updRh6S-14" value="&lt;font style=&quot;vertical-align: inherit;&quot;&gt;&lt;font style=&quot;vertical-align: inherit;&quot;&gt;Setuju Izin&lt;/font&gt;&lt;/font&gt;" style="rounded=0;whiteSpace=wrap;html=1;" vertex="1" parent="WIyWlLk6GJQsqaUBKTNV-1">
          <mxGeometry x="770" y="160" width="120" height="50" as="geometry" />
        </mxCell>
        <mxCell id="Lyx_HTyFLz4C8updRh6S-17" value="" style="endArrow=classic;startArrow=classic;html=1;rounded=0;exitX=0;exitY=0.25;exitDx=0;exitDy=0;entryX=0;entryY=0.5;entryDx=0;entryDy=0;" edge="1" parent="WIyWlLk6GJQsqaUBKTNV-1" source="Lyx_HTyFLz4C8updRh6S-11" target="Lyx_HTyFLz4C8updRh6S-14">
          <mxGeometry width="50" height="50" relative="1" as="geometry">
            <mxPoint x="750" y="70" as="sourcePoint" />
            <mxPoint x="740" y="190" as="targetPoint" />
            <Array as="points">
              <mxPoint x="740" y="63" />
              <mxPoint x="740" y="130" />
              <mxPoint x="740" y="185" />
            </Array>
          </mxGeometry>
        </mxCell>
        <mxCell id="Lyx_HTyFLz4C8updRh6S-23" value="&lt;font style=&quot;vertical-align: inherit;&quot;&gt;&lt;font style=&quot;vertical-align: inherit;&quot;&gt;Ditolak&lt;/font&gt;&lt;/font&gt;" style="edgeLabel;html=1;align=center;verticalAlign=middle;resizable=0;points=[];" vertex="1" connectable="0" parent="Lyx_HTyFLz4C8updRh6S-17">
          <mxGeometry x="-0.3626" y="3" relative="1" as="geometry">
            <mxPoint as="offset" />
          </mxGeometry>
        </mxCell>
        <mxCell id="Lyx_HTyFLz4C8updRh6S-24" value="&lt;font style=&quot;vertical-align: inherit;&quot;&gt;&lt;font style=&quot;vertical-align: inherit;&quot;&gt;Disetujui&lt;/font&gt;&lt;/font&gt;" style="edgeLabel;html=1;align=center;verticalAlign=middle;resizable=0;points=[];" vertex="1" connectable="0" parent="Lyx_HTyFLz4C8updRh6S-17">
          <mxGeometry x="0.3627" y="-3" relative="1" as="geometry">
            <mxPoint as="offset" />
          </mxGeometry>
        </mxCell>
        <mxCell id="Lyx_HTyFLz4C8updRh6S-21" value="" style="endArrow=none;html=1;rounded=0;" edge="1" parent="WIyWlLk6GJQsqaUBKTNV-1">
          <mxGeometry width="50" height="50" relative="1" as="geometry">
            <mxPoint x="711" y="122" as="sourcePoint" />
            <mxPoint x="739" y="122" as="targetPoint" />
          </mxGeometry>
        </mxCell>
        <mxCell id="Lyx_HTyFLz4C8updRh6S-31" value="" style="edgeStyle=orthogonalEdgeStyle;rounded=0;orthogonalLoop=1;jettySize=auto;html=1;" edge="1" parent="WIyWlLk6GJQsqaUBKTNV-1" source="Lyx_HTyFLz4C8updRh6S-22" target="Lyx_HTyFLz4C8updRh6S-30">
          <mxGeometry relative="1" as="geometry" />
        </mxCell>
        <mxCell id="Lyx_HTyFLz4C8updRh6S-22" value="&lt;font style=&quot;vertical-align: inherit;&quot;&gt;&lt;font style=&quot;vertical-align: inherit;&quot;&gt;Notifikasi Ke Siswa&lt;/font&gt;&lt;/font&gt;" style="rounded=0;whiteSpace=wrap;html=1;" vertex="1" parent="WIyWlLk6GJQsqaUBKTNV-1">
          <mxGeometry x="940" y="110" width="120" height="45" as="geometry" />
        </mxCell>
        <mxCell id="Lyx_HTyFLz4C8updRh6S-25" value="" style="endArrow=classic;html=1;rounded=0;exitX=1;exitY=0.5;exitDx=0;exitDy=0;entryX=0.5;entryY=1;entryDx=0;entryDy=0;" edge="1" parent="WIyWlLk6GJQsqaUBKTNV-1" source="Lyx_HTyFLz4C8updRh6S-14" target="Lyx_HTyFLz4C8updRh6S-22">
          <mxGeometry width="50" height="50" relative="1" as="geometry">
            <mxPoint x="950" y="200" as="sourcePoint" />
            <mxPoint x="1000" y="150" as="targetPoint" />
            <Array as="points">
              <mxPoint x="1000" y="185" />
            </Array>
          </mxGeometry>
        </mxCell>
        <mxCell id="Lyx_HTyFLz4C8updRh6S-27" value="&lt;font style=&quot;vertical-align: inherit;&quot;&gt;&lt;font style=&quot;vertical-align: inherit;&quot;&gt;Notifikasi Persetujuan&lt;/font&gt;&lt;/font&gt;" style="edgeLabel;html=1;align=center;verticalAlign=middle;resizable=0;points=[];" vertex="1" connectable="0" parent="Lyx_HTyFLz4C8updRh6S-25">
          <mxGeometry x="-0.7429" y="-1" relative="1" as="geometry">
            <mxPoint x="42" y="14" as="offset" />
          </mxGeometry>
        </mxCell>
        <mxCell id="Lyx_HTyFLz4C8updRh6S-26" value="" style="endArrow=classic;html=1;rounded=0;exitX=1;exitY=0.5;exitDx=0;exitDy=0;entryX=0.5;entryY=0;entryDx=0;entryDy=0;" edge="1" parent="WIyWlLk6GJQsqaUBKTNV-1" source="Lyx_HTyFLz4C8updRh6S-11" target="Lyx_HTyFLz4C8updRh6S-22">
          <mxGeometry width="50" height="50" relative="1" as="geometry">
            <mxPoint x="950" y="200" as="sourcePoint" />
            <mxPoint x="1000" y="150" as="targetPoint" />
            <Array as="points">
              <mxPoint x="1000" y="75" />
            </Array>
          </mxGeometry>
        </mxCell>
        <mxCell id="Lyx_HTyFLz4C8updRh6S-28" value="&lt;font style=&quot;vertical-align: inherit;&quot;&gt;&lt;font style=&quot;vertical-align: inherit;&quot;&gt;Notifikasi Penolakan&lt;/font&gt;&lt;/font&gt;" style="text;html=1;align=center;verticalAlign=middle;resizable=0;points=[];autosize=1;strokeColor=none;fillColor=none;" vertex="1" parent="WIyWlLk6GJQsqaUBKTNV-1">
          <mxGeometry x="890" y="50" width="130" height="30" as="geometry" />
        </mxCell>
        <mxCell id="Lyx_HTyFLz4C8updRh6S-33" value="" style="edgeStyle=orthogonalEdgeStyle;rounded=0;orthogonalLoop=1;jettySize=auto;html=1;" edge="1" parent="WIyWlLk6GJQsqaUBKTNV-1" source="Lyx_HTyFLz4C8updRh6S-30" target="Lyx_HTyFLz4C8updRh6S-32">
          <mxGeometry relative="1" as="geometry" />
        </mxCell>
        <mxCell id="Lyx_HTyFLz4C8updRh6S-30" value="&lt;font style=&quot;vertical-align: inherit;&quot;&gt;&lt;font style=&quot;vertical-align: inherit;&quot;&gt;Data Masuk Kelaporan&lt;/font&gt;&lt;/font&gt;" style="rounded=0;whiteSpace=wrap;html=1;" vertex="1" parent="WIyWlLk6GJQsqaUBKTNV-1">
          <mxGeometry x="1100" y="110" width="120" height="45" as="geometry" />
        </mxCell>
        <mxCell id="Lyx_HTyFLz4C8updRh6S-35" value="" style="edgeStyle=orthogonalEdgeStyle;rounded=0;orthogonalLoop=1;jettySize=auto;html=1;" edge="1" parent="WIyWlLk6GJQsqaUBKTNV-1" source="Lyx_HTyFLz4C8updRh6S-32" target="Lyx_HTyFLz4C8updRh6S-34">
          <mxGeometry relative="1" as="geometry" />
        </mxCell>
        <mxCell id="Lyx_HTyFLz4C8updRh6S-32" value="&lt;font style=&quot;vertical-align: inherit;&quot;&gt;&lt;font style=&quot;vertical-align: inherit;&quot;&gt;Laporan Rekap Izin&lt;/font&gt;&lt;/font&gt;" style="rounded=0;whiteSpace=wrap;html=1;" vertex="1" parent="WIyWlLk6GJQsqaUBKTNV-1">
          <mxGeometry x="1260" y="110" width="120" height="45" as="geometry" />
        </mxCell>
        <mxCell id="Lyx_HTyFLz4C8updRh6S-34" value="&lt;font style=&quot;vertical-align: inherit;&quot;&gt;&lt;font style=&quot;vertical-align: inherit;&quot;&gt;Selesai&lt;/font&gt;&lt;/font&gt;" style="rounded=0;whiteSpace=wrap;html=1;" vertex="1" parent="WIyWlLk6GJQsqaUBKTNV-1">
          <mxGeometry x="1420" y="110" width="80" height="45" as="geometry" />
        </mxCell>
        <mxCell id="Lyx_HTyFLz4C8updRh6S-38" value="" style="edgeStyle=orthogonalEdgeStyle;rounded=0;orthogonalLoop=1;jettySize=auto;html=1;" edge="1" parent="WIyWlLk6GJQsqaUBKTNV-1" source="Lyx_HTyFLz4C8updRh6S-36" target="Lyx_HTyFLz4C8updRh6S-0">
          <mxGeometry relative="1" as="geometry" />
        </mxCell>
        <mxCell id="Lyx_HTyFLz4C8updRh6S-36" value="&lt;font style=&quot;vertical-align: inherit;&quot;&gt;&lt;font style=&quot;vertical-align: inherit;&quot;&gt;Verifikasi Izin&lt;/font&gt;&lt;/font&gt;" style="rounded=0;whiteSpace=wrap;html=1;" vertex="1" parent="WIyWlLk6GJQsqaUBKTNV-1">
          <mxGeometry x="-70" y="100" width="80" height="50" as="geometry" />
        </mxCell>
      </root>
    </mxGraphModel>
  </diagram>
</mxfile>
